PathFileType	4	(X/Y/Z)	T00_Trial_0-99.trc
DataRate	CameraRate	NumFrames	NumMarkers	Units	OrigDataRate	OrigDataStartFrame	OrigNumFrames
60	60	6	22	m	60	0	99
Frame#	Time	Hip			RHip			RKnee			RAnkle			RBigToe			RSmallToe			RHeel			LHip			LKnee			LAnkle			LBigToe			LSmallToe			LHeel			Neck			Head			Nose			RShoulder			RElbow			RWrist			LShoulder			LElbow			LWrist		
		X1	Y1	Z1	X2	Y2	Z2	X3	Y3	Z3	X4	Y4	Z4	X5	Y5	Z5	X6	Y6	Z6	X7	Y7	Z7	X8	Y8	Z8	X9	Y9	Z9	X10	Y10	Z10	X11	Y11	Z11	X12	Y12	Z12	X13	Y13	Z13	X14	Y14	Z14	X15	Y15	Z15	X16	Y16	Z16	X17	Y17	Z17	X18	Y18	Z18	X19	Y19	Z19	X20	Y20	Z20	X21	Y21	Z21	X22	Y22	Z22
0	0.0	0.040578752617300526	0.8998314198232976	-1.4679951204400832	-0.07053637426433776	0.9347695164448194	-0.7802800800000438	-0.05980396727271798	0.46288520455921345	-1.4542624292340236	0.0147403101904384	0.14234796096850655	-1.598002481341569	-0.06596349647202701	0.062696361129878	-1.495866724511537	-0.07270334433066332	0.062265560204188455	-1.5192933415282817	0.028555585823323487	0.12852942634839526	-1.6490093005983935	0.12961524609636543	0.866470829068068	-1.4522358714959123	0.043267283272802395	0.49865923982140503	-1.2342728328791088	0.017344680144647538	0.13830090022119432	-1.1636032483597145	-0.07679249507782973	0.11634771384534794	-0.9719269705299829	-0.018881841973999447	0.11498502511560492	-0.9937453356925812	0.01481157964317758	0.12063288929844938	-1.2055206021204574	-0.07437720023982625	1.4791100777209532	-1.415683414395214	-0.08476250148974036	1.6822610576050598	-1.305013235017871	-0.10795807647539434	1.4991975644201898	-1.1855501099921417	-0.21611729160733295	1.3614087384732119	-1.4793800461075068	-0.3202861881669681	1.0734254339957916	-1.5283934744250691	-0.3736744003909664	0.8408054781049836	-1.421740111091128	0.1446167141624571	1.4140072624513045	-1.4589220012875022	0.2576581350177193	1.1488289307387403	-1.4670960088925942	0.3584197464051376	0.9024038995249043	-1.4472752823110442
1	0.016666666666666666	0.0313983588911427	0.8989019164784768	-1.4587366236386432	-0.07053637426433776	0.9347695164448194	-0.7802800800000438	-0.05823831931429997	0.46574736904796205	-1.450765191868281	0.015347562033418763	0.14485380037364243	-1.5984043870403462	-0.0643222146318061	0.06493449268109673	-1.4892169745829291	-0.07212007228935127	0.06275280224956345	-1.5210647541346094	0.0330218728148692	0.12459377215945293	-1.6467737901617456	0.12526617298142262	0.8685882478918145	-1.4410487571157338	0.03890713309080372	0.49486228181361974	-1.2211461825074899	0.011969265682916496	0.13897924317058524	-1.1647516648693754	-0.07204846820191121	0.10633907956290344	-0.9730856720317511	-0.014730397077554047	0.10616534025322442	-0.9973765902975038	0.008502196720000953	0.11137289636045186	-1.2032611325076088	-0.060936930722314465	1.4796190594414034	-1.4065648353149338	-0.07331404114708018	1.683074553510847	-1.289672756967571	-0.09353956964780864	1.5054968407282074	-1.1818501587187404	-0.21299726319331477	1.3664427269939203	-1.4712536269860903	-0.3158675357225041	1.0844972842750369	-1.51982529694083	-0.37714860054724786	0.8599649716532178	-1.397645368699453	0.15045672165414875	1.4103061962106542	-1.450517545587997	0.2632572949152786	1.1449013570381354	-1.4594183091897601	0.35749710021400116	0.9024602656252626	-1.4338465701906975
2	0.03333333333333333	0.02221796516498488	0.8979724131336561	-1.4494781268372032	-0.07053637426433776	0.9347695164448194	-0.7802800800000438	-0.056672671355881964	0.46860953353671064	-1.4472679545025382	0.015954813876399125	0.1473596397787783	-1.5988062927391233	-0.06268093279158518	0.06717262423231546	-1.4825672246543213	-0.07153680024803923	0.06324004429493844	-1.5228361667409371	0.037488159806414914	0.12065811797051061	-1.6445382797250978	0.12091709986647983	0.870705666715561	-1.4298616427355553	0.03454698290880505	0.49106532380583445	-1.2080195321358709	0.006593851221185453	0.13965758611997617	-1.1659000813790363	-0.0673044413259927	0.09633044528045893	-0.9742443735335193	-0.010578952181108648	0.09734565539084393	-1.0010078449024264	0.0021928137968243253	0.10211290342245434	-1.2010016628947602	-0.04749666120480268	1.4801280411618536	-1.3974462562346537	-0.061865580804420006	1.683888049416634	-1.274332278917271	-0.07912106282022295	1.511796117036225	-1.1781502074453392	-0.2098772347792966	1.3714767155146288	-1.4631272078646738	-0.3114488832780401	1.0955691345542822	-1.5112571194565907	-0.38062280070352933	0.879124465201452	-1.373550626307778	0.1562967291458404	1.406605129970004	-1.442113089888492	0.26885645481283793	1.1409737833375306	-1.451740609486926	0.35657445402286475	0.9025166317256209	-1.4204178580703508
3	0.05	0.013037571438827056	0.8970429097888353	-1.4402196300357633	-0.07053637426433776	0.9347695164448194	-0.7802800800000438	-0.055107023397463956	0.47147169802545924	-1.4437707171367955	0.016562065719379487	0.14986547918391419	-1.5992081984379005	-0.061039650951364266	0.06941075578353419	-1.4759174747257136	-0.07095352820672718	0.06372728634031344	-1.5246075793472649	0.04195444679796063	0.1167224637815683	-1.64230276928845	0.11656802675153703	0.8728230855393075	-1.4186745283553768	0.030186832726806383	0.48726836579804916	-1.194892881764252	0.0012184367594544106	0.1403359290693671	-1.1670484978886972	-0.06256041445007417	0.08632181099801443	-0.9754030750352876	-0.006427507284663247	0.08852597052846344	-1.004639099507349	-0.004116569126352302	0.09285291048445682	-1.1987421932819116	-0.03405639168729089	1.4806370228823038	-1.3883276771543736	-0.05041712046175983	1.684701545322421	-1.2589918008669712	-0.06470255599263726	1.5180953933442427	-1.1744502561719379	-0.20675720636527842	1.3765107040353373	-1.4550007887432572	-0.3070302308335761	1.1066409848335275	-1.5026889419723515	-0.3840970008598108	0.8982839587496864	-1.3494558839161026	0.16213673663753203	1.4029040637293537	-1.4337086341889869	0.27445561471039726	1.1370462096369258	-1.444062909784092	0.35565180783172834	0.9025729978259792	-1.4069891459500041
4	0.06666666666666667	0.003857177712669232	0.8961134064440145	-1.4309611332343233	-0.07053637426433776	0.9347695164448194	-0.7802800800000438	-0.05354137543904595	0.47433386251420784	-1.4402734797710528	0.01716931756235985	0.15237131858905006	-1.5996101041366777	-0.05939836911114335	0.07164888733475291	-1.4692677247971058	-0.07037025616541513	0.06421452838568843	-1.5263789919535926	0.04642073378950634	0.11278680959262598	-1.6400672588518022	0.11221895363659423	0.874940504363054	-1.4074874139751983	0.025826682544807713	0.4834714077902639	-1.181766231392633	-0.004156977702276632	0.14101427201875802	-1.1681969143983582	-0.057816387574155644	0.07631317671556993	-0.9765617765370558	-0.0022760623882178465	0.07970628566608294	-1.0082703541122717	-0.01042595204952893	0.0835929175464593	-1.196482723669063	-0.0206161221697791	1.481146004602754	-1.3792090980740934	-0.03896866011909965	1.685515041228208	-1.2436513228166712	-0.05028404916505157	1.5243946696522603	-1.1707503048985366	-0.20363717795126024	1.3815446925560457	-1.4468743696218407	-0.3026115783891121	1.1177128351127728	-1.4941207644881123	-0.38757120101609227	0.9174434522979207	-1.3253611415244273	0.16797674412922367	1.3992029974887035	-1.4253041784894818	0.2800547746079566	1.133118635936321	-1.436385210081258	0.35472916164059193	0.9026293639263375	-1.3935604338296574
5	0.08333333333333333	0.0007541646944039605	0.8996975369911469	-1.4196407739448964	-0.07053637426433776	0.9347695164448194	-0.7802800800000438	-0.05288092845620739	0.4737568178528527	-1.438406562416481	0.018029750262153275	0.150831116256834	-1.598237465016346	-0.05962487336480166	0.07127297918508896	-1.4700687049265786	-0.07210993123909001	0.06702599902671343	-1.5270372817352789	0.04665906619717742	0.11511372240695154	-1.6354215911451697	0.10564663458813375	0.8832474790114483	-1.3967341611096862	0.021884718244131768	0.48373510054601954	-1.1724348533032942	-0.004022565661988577	0.14322537134541352	-1.1621522302509657	-0.0594205315457157	0.07721417655885125	-0.9804139176547849	-0.006615876371997016	0.08456068280865935	-1.0157034685357644	-0.01123661446600267	0.08697351405324948	-1.1917881403352024	-0.01179980005869001	1.4821217858941453	-1.37194093507849	-0.02283091564838145	1.688347048304609	-1.232543053429901	-0.035865542337465875	1.530693945960278	-1.1670503536251353	-0.19325385578465018	1.3850830315043066	-1.4405326338752724	-0.30687953853751476	1.1294782180457104	-1.4892993173619977	-0.39104540117237374	0.9366029458461549	-1.3012663991327522	0.17196969122531308	1.3983990428901438	-1.4197899703130874	0.2813629062508507	1.129603648420934	-1.4293866181929142	0.35740412844602504	0.8900606066977206	-1.3792713891995612
